<svg id="Layer_1" data-name="Layer 1" xmlns="http://www.w3.org/2000/svg" viewBox="0 0 32 32"><defs><style>.cls-1{opacity:0;}.cls-2{fill:#5a5b5b;}.cls-3{fill:#5b5c5d;}</style></defs><title>Help</title><g class="cls-1"><path class="cls-2" d="M30.77,1.23V30.77H1.23V1.23H30.77M32,0H0V32H32V0Z"/></g><path class="cls-2" d="M16,4A12,12,0,1,1,4,16,12,12,0,0,1,16,4m0-1A13,13,0,1,0,29,16,13,13,0,0,0,16,3Z"/><path class="cls-3" d="M15,18.56c0-1.35,1.06-2.21,2.26-3.1,1-.74,1.76-1.48,1.76-2.67,0-1.35-1.17-2.11-3-2.11a11,11,0,0,0-3.41.63l-.26-1a12.13,12.13,0,0,1,3.73-.67c2.45,0,4.21,1.13,4.21,3.17a4.07,4.07,0,0,1-2,3.3c-1,.74-2.06,1.41-2.06,2.48V20H15Z"/><rect class="cls-3" x="14.99" y="21.77" width="1.28" height="1.5"/></svg>