<svg id="Layer_1" data-name="Layer 1" xmlns="http://www.w3.org/2000/svg" viewBox="0 0 32 32"><defs><style>.cls-1{opacity:0;}.cls-2{fill:#5a5b5b;}</style></defs><title>LayerList</title><g class="cls-1"><path class="cls-2" d="M30.77,1.23V30.77H1.23V1.23H30.77M32,0H0V32H32V0Z"/></g><path class="cls-2" d="M16,28a5.42,5.42,0,1,1,5.42-5.42A5.43,5.43,0,0,1,16,28Zm0-9.85a4.42,4.42,0,1,0,4.42,4.42A4.43,4.43,0,0,0,16,18.16Z"/><path class="cls-2" d="M16,14.84a5.42,5.42,0,1,1,5.42-5.42A5.43,5.43,0,0,1,16,14.84ZM16,5a4.42,4.42,0,1,0,4.42,4.42A4.43,4.43,0,0,0,16,5Z"/><circle class="cls-2" cx="15.99" cy="9.41" r="2.38"/></svg>