<svg id="Layer_1" data-name="Layer 1" xmlns="http://www.w3.org/2000/svg" viewBox="0 0 32 32"><defs><style>.cls-1{opacity:0;}.cls-2{fill:#5a5b5b;}</style></defs><title>eEdit_Inactive</title><g class="cls-1"><path class="cls-2" d="M30.77,1.23V30.77H1.23V1.23H30.77M32,0H0V32H32V0Z"/></g><polygon class="cls-2" points="26.5 14.5 26.5 27.5 4.5 27.5 4.5 5.5 17.5 5.5 18.5 4.5 3.5 4.5 3.5 28.5 27.5 28.5 27.5 13.5 26.5 14.5"/><path class="cls-2" d="M24.5,4.91,27.09,7.5l-15,15H9.5V19.91l15-15m0-1.41-16,16v4h4l16-16-4-4Z"/><rect class="cls-2" x="22.5" y="6.88" width="1" height="4.24" transform="translate(0.37 18.9) rotate(-45)"/></svg>