<svg id="Layer_1" data-name="Layer 1" xmlns="http://www.w3.org/2000/svg" xmlns:xlink="http://www.w3.org/1999/xlink" viewBox="0 0 1268.42 200.47"><defs><style>.cls-1{fill:#231f20;}.cls-2{fill:#479299;}.cls-3{stroke:#231f20;stroke-miterlimit:10;stroke-width:1.59px;fill:url(#linear-gradient);}.cls-4,.cls-5,.cls-6{stroke:#479299;}.cls-4,.cls-5{stroke-width:0.83px;}.cls-4{fill:url(#linear-gradient-2);}.cls-5{fill:url(#linear-gradient-3);}.cls-6{stroke-width:0.81px;fill:url(#linear-gradient-4);}.cls-7{fill:#db1f26;}.cls-8{fill:#726d4a;}.cls-9{fill:#aec037;}.cls-10{fill:#baac6a;}.cls-11{fill:#5d89b4;}.cls-12{fill:#d2852c;}.cls-13{fill:#5a5b5c;}</style><linearGradient id="linear-gradient" x1="532.94" y1="54.32" x2="532.94" y2="212.47" gradientTransform="translate(1004.11 -149.13) rotate(135)" gradientUnits="userSpaceOnUse"><stop offset="0" stop-color="#fff"/><stop offset="0.11" stop-color="#f7fafb"/><stop offset="0.27" stop-color="#e2eeef"/><stop offset="0.48" stop-color="#bfd9dc"/><stop offset="0.71" stop-color="#8fbdc1"/><stop offset="0.96" stop-color="#52999f"/><stop offset="1" stop-color="#479299"/></linearGradient><linearGradient id="linear-gradient-2" x1="504.56" y1="101.57" x2="504.56" y2="158.83" gradientUnits="userSpaceOnUse"><stop offset="0" stop-color="#a99b45"/><stop offset="0.11" stop-color="#ad9f4d"/><stop offset="0.28" stop-color="#b7aa62"/><stop offset="0.48" stop-color="#c7bd85"/><stop offset="0.71" stop-color="#ddd7b5"/><stop offset="0.97" stop-color="#faf7f2"/><stop offset="1" stop-color="#fefcfb"/></linearGradient><linearGradient id="linear-gradient-3" x1="529.87" y1="130.2" x2="529.87" y2="189.75" xlink:href="#linear-gradient-2"/><linearGradient id="linear-gradient-4" x1="571.14" y1="102.54" x2="571.14" y2="163.19" xlink:href="#linear-gradient-2"/></defs><title>Logo_exp_pcs</title><path class="cls-1" d="M649.71,127.73a9.08,9.08,0,0,1-.85,4,9.41,9.41,0,0,1-2.25,3,9.54,9.54,0,0,1-3.21,1.87,11.25,11.25,0,0,1-3.73.63h-6.31v16h-3.68v-35h9.77a11.93,11.93,0,0,1,3.84.63,9.77,9.77,0,0,1,3.29,1.87,9.23,9.23,0,0,1,2.28,3A9.09,9.09,0,0,1,649.71,127.73Zm-3.73,0a6,6,0,0,0-.58-2.66,5.89,5.89,0,0,0-1.54-2,7.06,7.06,0,0,0-2.25-1.23,8.54,8.54,0,0,0-2.77-.44h-5.49V134h5.71a8.44,8.44,0,0,0,2.63-.41,6.17,6.17,0,0,0,2.2-1.23,6.34,6.34,0,0,0,1.51-2A6,6,0,0,0,646,127.73Z" transform="translate(-48.79 -37.12)"/><path class="cls-1" d="M666.78,131a9,9,0,0,0-3.35.63,8,8,0,0,0-2.8,1.87,8.85,8.85,0,0,0-1.92,3.13,12.51,12.51,0,0,0-.71,4.42v12.18h-3.51V128.39h3.35l.16,4.77a6.82,6.82,0,0,1,3-3.7,10.45,10.45,0,0,1,5.57-1.4l.71,3Z" transform="translate(-48.79 -37.12)"/><path class="cls-1" d="M695.26,140.84a13.36,13.36,0,0,1-1,5.21,12.29,12.29,0,0,1-6.89,6.78,14.49,14.49,0,0,1-10.37,0,12.48,12.48,0,0,1-4.14-2.69,12.73,12.73,0,0,1-2.77-4.09,13,13,0,0,1-1-5.21,13.25,13.25,0,0,1,1-5.24,12.67,12.67,0,0,1,2.77-4.12A12.47,12.47,0,0,1,677,128.8a14.47,14.47,0,0,1,10.37,0,12.47,12.47,0,0,1,4.14,2.69,12.31,12.31,0,0,1,2.74,4.12A13.57,13.57,0,0,1,695.26,140.84Zm-3.51,0a10.5,10.5,0,0,0-.74-4,9.42,9.42,0,0,0-2.06-3.13,9.64,9.64,0,0,0-3-2.06,9.3,9.3,0,0,0-3.7-.74,9.64,9.64,0,0,0-3.79.74,9.24,9.24,0,0,0-3,2.06,9.61,9.61,0,0,0-2,3.13,11.2,11.2,0,0,0,0,8,9.6,9.6,0,0,0,2,3.13,8.88,8.88,0,0,0,3,2,10,10,0,0,0,3.79.71,9.6,9.6,0,0,0,3.7-.71,9.25,9.25,0,0,0,3-2,9.41,9.41,0,0,0,2.06-3.13A10.5,10.5,0,0,0,691.75,140.84Z" transform="translate(-48.79 -37.12)"/><path class="cls-1" d="M704.81,159.67a10.86,10.86,0,0,1-1.45,2.91,8.93,8.93,0,0,1-2.11,2.11,7.48,7.48,0,0,1-2.58,1.18l-2.25-2.2a6.61,6.61,0,0,0,4-2.52,8.89,8.89,0,0,0,1.4-5.32V128.39h3.51V156.1A11.24,11.24,0,0,1,704.81,159.67Zm1.1-38.75a1.77,1.77,0,0,1-.25.8,4.66,4.66,0,0,1-.6.88,4.3,4.3,0,0,1-.74.69,1.06,1.06,0,0,1-1.43,0,4.26,4.26,0,0,1-.74-.69,4.62,4.62,0,0,1-.6-.88,1.41,1.41,0,0,1,0-1.59,4.69,4.69,0,0,1,.6-.88,5.37,5.37,0,0,1,.74-.71,1,1,0,0,1,1.43,0,5.43,5.43,0,0,1,.74.71,4.73,4.73,0,0,1,.6.88A1.77,1.77,0,0,1,705.91,120.92Z" transform="translate(-48.79 -37.12)"/><path class="cls-1" d="M734.39,137.11V138a3,3,0,0,1-.11.82l-2.09,2H715.56a9.1,9.1,0,0,0,2.53,6.81,10.24,10.24,0,0,0,3.18,2.22,9.94,9.94,0,0,0,4.17.85,13.92,13.92,0,0,0,4.12-.58,12.6,12.6,0,0,0,3.68-1.89l-1,3.84a12.37,12.37,0,0,1-3.16,1.26,16.48,16.48,0,0,1-4,.44,13.49,13.49,0,0,1-5.08-1,13,13,0,0,1-4.17-2.66,12.46,12.46,0,0,1-2.83-4.09,13,13,0,0,1-1-5.24,13.37,13.37,0,0,1,1-5.41,13.14,13.14,0,0,1,2.74-4.09,12,12,0,0,1,3.84-2.61,11.15,11.15,0,0,1,4.39-.91,11.76,11.76,0,0,1,4.47.8,9.8,9.8,0,0,1,3.27,2.11,9.06,9.06,0,0,1,2,3A8.84,8.84,0,0,1,734.39,137.11Zm-3.46.22a6.09,6.09,0,0,0-.44-2.22,6.64,6.64,0,0,0-1.29-2.06,6.65,6.65,0,0,0-5.08-2.14,7.33,7.33,0,0,0-2.94.6,9.07,9.07,0,0,0-2.5,1.59,9.79,9.79,0,0,0-1.87,2.28,7.49,7.49,0,0,0-1,2.66h15A3.29,3.29,0,0,0,730.93,137.33Z" transform="translate(-48.79 -37.12)"/><path class="cls-1" d="M758.86,132.83a11.39,11.39,0,0,0-3.21-1.43,13.82,13.82,0,0,0-3.7-.49,10.75,10.75,0,0,0-3.92.71,9.29,9.29,0,0,0-3.18,2,9.46,9.46,0,0,0-2.11,3.16,10.35,10.35,0,0,0-.77,4A9.81,9.81,0,0,0,744.9,148a9.27,9.27,0,0,0,3.18,2,10.88,10.88,0,0,0,4,.71,15.72,15.72,0,0,0,3.65-.41,16.28,16.28,0,0,0,3.65-1.4l-.88,3.51a9.79,9.79,0,0,1-3,1,19.92,19.92,0,0,1-3.68.33,14.26,14.26,0,0,1-5-.91,12.68,12.68,0,0,1-7.19-6.7,12.66,12.66,0,0,1-1.1-5.35,13.14,13.14,0,0,1,1.07-5.38,12.06,12.06,0,0,1,2.91-4.09,13.46,13.46,0,0,1,4.25-2.61,14,14,0,0,1,5.1-.93,16.41,16.41,0,0,1,4.39.55,14.68,14.68,0,0,1,3.4,1.37Z" transform="translate(-48.79 -37.12)"/><path class="cls-1" d="M779.22,131.19H771V147a3.27,3.27,0,0,0,1.07,2.69,4,4,0,0,0,2.61.88,7,7,0,0,0,2.85-.49l-.82,3.29a7.61,7.61,0,0,1-2.31.27,7.26,7.26,0,0,1-4.91-1.73,6.27,6.27,0,0,1-2-5v-15.7h-5.16v-2.85h5.16V123l3.51-1.81v7.19h8.89Z" transform="translate(-48.79 -37.12)"/><path class="cls-1" d="M824.28,123.23a15.39,15.39,0,0,0-4-1.7,18.66,18.66,0,0,0-5.24-.71,16.32,16.32,0,0,0-5.71,1,14.39,14.39,0,0,0-8.23,7.68,16.1,16.1,0,0,0,0,12.43,14.25,14.25,0,0,0,3.35,4.69,14.52,14.52,0,0,0,4.86,3,16.45,16.45,0,0,0,5.76,1,18.45,18.45,0,0,0,9.88-2.36l-.88,3.73a13.31,13.31,0,0,1-3.87,1.4,27.46,27.46,0,0,1-5.52.47,19.66,19.66,0,0,1-6.86-1.23,17.83,17.83,0,0,1-5.93-3.59,18.25,18.25,0,0,1-4.17-5.71,18.94,18.94,0,0,1,0-15.2,17.74,17.74,0,0,1,4.2-5.68,18.38,18.38,0,0,1,6-3.57,19.52,19.52,0,0,1,6.8-1.24,24.31,24.31,0,0,1,6,.66A16.51,16.51,0,0,1,825,120Z" transform="translate(-48.79 -37.12)"/><path class="cls-1" d="M854.3,140.84a13.36,13.36,0,0,1-1,5.21,12.29,12.29,0,0,1-6.89,6.78,14.49,14.49,0,0,1-10.37,0,12.48,12.48,0,0,1-4.14-2.69,12.73,12.73,0,0,1-2.77-4.09,13,13,0,0,1-1-5.21,13.25,13.25,0,0,1,1-5.24,12.67,12.67,0,0,1,2.77-4.12,12.47,12.47,0,0,1,4.14-2.69,14.47,14.47,0,0,1,10.37,0,12.47,12.47,0,0,1,4.14,2.69,12.31,12.31,0,0,1,2.74,4.12A13.57,13.57,0,0,1,854.3,140.84Zm-3.51,0a10.5,10.5,0,0,0-.74-4,9.42,9.42,0,0,0-2.06-3.13,9.64,9.64,0,0,0-3-2.06,9.3,9.3,0,0,0-3.7-.74,9.64,9.64,0,0,0-3.79.74,9.24,9.24,0,0,0-3,2.06,9.61,9.61,0,0,0-2,3.13,11.2,11.2,0,0,0,0,8,9.6,9.6,0,0,0,2,3.13,8.88,8.88,0,0,0,3,2,10,10,0,0,0,3.79.71,9.6,9.6,0,0,0,3.7-.71,9.25,9.25,0,0,0,3-2,9.41,9.41,0,0,0,2.06-3.13A10.5,10.5,0,0,0,850.79,140.84Z" transform="translate(-48.79 -37.12)"/><path class="cls-1" d="M876.91,153.25V136.88a5.69,5.69,0,0,0-1.74-4.3,7,7,0,0,0-5.06-1.67,7.49,7.49,0,0,0-5.12,1.67,5.45,5.45,0,0,0-1.91,4.3v16.37h-3.51V128.39h3.18l.11,3a8.43,8.43,0,0,1,2.9-2.5,10.69,10.69,0,0,1,5.2-1.07,11.29,11.29,0,0,1,3.75.6,9.36,9.36,0,0,1,3,1.7,7.46,7.46,0,0,1,2,2.72,9,9,0,0,1,.71,3.65v16.74Z" transform="translate(-48.79 -37.12)"/><path class="cls-1" d="M901.77,146.77a6.36,6.36,0,0,1-2.28,5.08,9.27,9.27,0,0,1-6.23,1.95,13.3,13.3,0,0,1-4.09-.58,9,9,0,0,1-2.88-1.45l-.93-4a11.65,11.65,0,0,0,7.93,3.07,5.87,5.87,0,0,0,3.52-1,3.33,3.33,0,0,0,1.45-2.85,3.7,3.7,0,0,0-1.26-2.88,10.32,10.32,0,0,0-3.33-1.89,15.64,15.64,0,0,1-5.33-3,6.76,6.76,0,0,1-1.31-7.41,6.05,6.05,0,0,1,1.59-2.06,7.62,7.62,0,0,1,2.44-1.34,9.29,9.29,0,0,1,3.07-.49,11.8,11.8,0,0,1,3.69.55,9.93,9.93,0,0,1,2.38,1l-.66,2.85a11.44,11.44,0,0,0-2.19-1,9.5,9.5,0,0,0-3.28-.52,4.56,4.56,0,0,0-3,1,3.21,3.21,0,0,0-1.18,2.58,3.33,3.33,0,0,0,1.13,2.63,10.2,10.2,0,0,0,3.21,1.76,15.88,15.88,0,0,1,5.57,3.13A6.43,6.43,0,0,1,901.77,146.77Z" transform="translate(-48.79 -37.12)"/><path class="cls-1" d="M925,153.25l-.11-3a8.42,8.42,0,0,1-2.9,2.5,10.68,10.68,0,0,1-5.2,1.07,11.27,11.27,0,0,1-3.75-.6,9.32,9.32,0,0,1-3-1.7,7.45,7.45,0,0,1-2-2.72,9,9,0,0,1-.71-3.65V128.39h3.51v16.37a5.69,5.69,0,0,0,1.74,4.3,7,7,0,0,0,5.06,1.67,7.49,7.49,0,0,0,5.12-1.67,5.45,5.45,0,0,0,1.91-4.3V128.39h3.51v24.86Z" transform="translate(-48.79 -37.12)"/><path class="cls-1" d="M940.3,154.07a7.7,7.7,0,0,1-1.49-.66,5,5,0,0,1-1.39-1.18,6.45,6.45,0,0,1-1-1.84,7.24,7.24,0,0,1-.42-2.58V114.17h3.51v33.26a4.28,4.28,0,0,0,1,2.88,4,4,0,0,0,2.22,1.4Z" transform="translate(-48.79 -37.12)"/><path class="cls-1" d="M962.85,131.19h-8.18V147a3.27,3.27,0,0,0,1.07,2.69,4,4,0,0,0,2.61.88,7,7,0,0,0,2.85-.49l-.82,3.29a7.61,7.61,0,0,1-2.31.27,7.26,7.26,0,0,1-4.91-1.73,6.27,6.27,0,0,1-2-5v-15.7H946v-2.85h5.16V123l3.51-1.81v7.19h8.89Z" transform="translate(-48.79 -37.12)"/><path class="cls-1" d="M973.06,120.92a1.77,1.77,0,0,1-.25.8,4.07,4.07,0,0,1-.63.88,5.17,5.17,0,0,1-.77.69,1.06,1.06,0,0,1-1.43,0,4.26,4.26,0,0,1-.74-.69,4.62,4.62,0,0,1-.6-.88,1.41,1.41,0,0,1,0-1.59,4.69,4.69,0,0,1,.6-.88,5.37,5.37,0,0,1,.74-.71,1,1,0,0,1,1.43,0,6.82,6.82,0,0,1,.77.71,4.11,4.11,0,0,1,.63.88A1.77,1.77,0,0,1,973.06,120.92Zm-4.12,32.33V128.39h3.51v24.86Z" transform="translate(-48.79 -37.12)"/><path class="cls-1" d="M997.59,153.25V136.88a5.69,5.69,0,0,0-1.74-4.3,7,7,0,0,0-5.06-1.67,7.49,7.49,0,0,0-5.12,1.67,5.45,5.45,0,0,0-1.91,4.3v16.37h-3.51V128.39h3.18l.11,3a8.43,8.43,0,0,1,2.9-2.5,10.69,10.69,0,0,1,5.2-1.07,11.29,11.29,0,0,1,3.75.6,9.36,9.36,0,0,1,3,1.7,7.46,7.46,0,0,1,2,2.72,9,9,0,0,1,.71,3.65v16.74Z" transform="translate(-48.79 -37.12)"/><path class="cls-1" d="M1027.72,158a6.33,6.33,0,0,1-.79,3.13,7.87,7.87,0,0,1-2.25,2.5,11.3,11.3,0,0,1-3.46,1.67,15.31,15.31,0,0,1-4.42.6,14.67,14.67,0,0,1-4.52-.66,11.14,11.14,0,0,1-3.51-1.81,8.1,8.1,0,0,1-2.26-2.72,7.33,7.33,0,0,1-.8-3.37,7.62,7.62,0,0,1,.49-2.8,8.08,8.08,0,0,1,1.32-2.25,7.15,7.15,0,0,1,1.91-1.62,8.34,8.34,0,0,1,2.2-.91l-3-2.69a2.76,2.76,0,0,1,.31-1.26,5.22,5.22,0,0,1,.81-1.15,5.74,5.74,0,0,1,1.14-1,4.49,4.49,0,0,1,1.25-.58,8.88,8.88,0,0,1-3.21-2.77,7.1,7.1,0,0,1-1.34-4.31,7.84,7.84,0,0,1,2.58-5.93,8.54,8.54,0,0,1,2.88-1.7,10.71,10.71,0,0,1,3.65-.6,10.13,10.13,0,0,1,1.76.14c.51.09,1,.19,1.37.3a10.33,10.33,0,0,0,3.07.38,8.56,8.56,0,0,0,2.09-.25,7.31,7.31,0,0,0,1.7-.63l.71,2.85a5.34,5.34,0,0,1-1.54.52,8.72,8.72,0,0,1-1.87.25,6.32,6.32,0,0,1,1.29,2,6.73,6.73,0,0,1,.52,2.69,8.11,8.11,0,0,1-.63,3.16,8,8,0,0,1-1.81,2.66,8.42,8.42,0,0,1-2.88,1.81,10.42,10.42,0,0,1-3.79.66,7,7,0,0,0-3.18.58q-1.1.58-1.1,1.34,0,.16.69.82a3.93,3.93,0,0,0,1.56.93l6.42,2.2a12.31,12.31,0,0,1,4.91,2.88A6.76,6.76,0,0,1,1027.72,158Zm-3.35,0a4.12,4.12,0,0,0-1.15-3,7.49,7.49,0,0,0-3.24-1.87l-5-1.54a6.48,6.48,0,0,0-4.42,1.65,5.28,5.28,0,0,0-1.73,4.06,4.57,4.57,0,0,0,.52,2.11,5.5,5.5,0,0,0,1.54,1.81,8.27,8.27,0,0,0,2.47,1.29,10.3,10.3,0,0,0,3.32.49,11,11,0,0,0,3.24-.44,8.26,8.26,0,0,0,2.42-1.15,5.25,5.25,0,0,0,1.51-1.62A3.65,3.65,0,0,0,1024.37,158Zm-1.87-22a4.9,4.9,0,0,0-.44-2.06,5.37,5.37,0,0,0-1.23-1.7,5.75,5.75,0,0,0-1.87-1.15,6.29,6.29,0,0,0-2.28-.41,6,6,0,0,0-4.25,1.56,5.15,5.15,0,0,0,0,7.6,6,6,0,0,0,4.25,1.54,6.14,6.14,0,0,0,2.22-.41,5.72,5.72,0,0,0,3.13-2.85A4.78,4.78,0,0,0,1022.51,136.07Z" transform="translate(-48.79 -37.12)"/><path class="cls-1" d="M1065.48,143.86a9.26,9.26,0,0,1-3,7.27q-3,2.72-8.31,2.72a16.52,16.52,0,0,1-5.44-.82,14.29,14.29,0,0,1-3.78-1.87l-1-4.33a20.47,20.47,0,0,0,4.82,2.77,14.9,14.9,0,0,0,5.6,1,8.06,8.06,0,0,0,5.38-1.76,5.79,5.79,0,0,0,2.09-4.67,6.3,6.3,0,0,0-1.7-4.53,13.4,13.4,0,0,0-5.38-3,16.17,16.17,0,0,1-6.94-4.17,8.76,8.76,0,0,1-2.22-6,8.62,8.62,0,0,1,.62-3.21,8.45,8.45,0,0,1,1.87-2.83,9.07,9.07,0,0,1,3.22-2,12.68,12.68,0,0,1,4.61-.77,14.11,14.11,0,0,1,4.36.63,11.64,11.64,0,0,1,3,1.4l-.77,3.07a10.86,10.86,0,0,0-2.88-1.4,11.83,11.83,0,0,0-3.87-.63,8,8,0,0,0-2.91.49,6.47,6.47,0,0,0-2.08,1.26,5.3,5.3,0,0,0-1.26,1.78,5,5,0,0,0-.44,2,5.32,5.32,0,0,0,1.54,3.73,12.82,12.82,0,0,0,4.88,2.91,30.62,30.62,0,0,1,4.23,1.92,14.36,14.36,0,0,1,3.16,2.33,9.07,9.07,0,0,1,2,2.94A9.79,9.79,0,0,1,1065.48,143.86Z" transform="translate(-48.79 -37.12)"/><path class="cls-1" d="M1092.26,137.11V138a3,3,0,0,1-.11.82l-2.09,2h-16.63a9.1,9.1,0,0,0,2.53,6.81,10.24,10.24,0,0,0,3.18,2.22,9.94,9.94,0,0,0,4.17.85,13.92,13.92,0,0,0,4.12-.58,12.6,12.6,0,0,0,3.68-1.89l-1,3.84a12.37,12.37,0,0,1-3.16,1.26,16.48,16.48,0,0,1-4,.44,13.49,13.49,0,0,1-5.08-1,13,13,0,0,1-4.17-2.66,12.46,12.46,0,0,1-2.83-4.09,13,13,0,0,1-1-5.24,13.37,13.37,0,0,1,1-5.41,13.14,13.14,0,0,1,2.74-4.09,12,12,0,0,1,3.84-2.61,11.15,11.15,0,0,1,4.39-.91,11.76,11.76,0,0,1,4.47.8,9.8,9.8,0,0,1,3.27,2.11,9.06,9.06,0,0,1,2,3A8.84,8.84,0,0,1,1092.26,137.11Zm-3.46.22a6.09,6.09,0,0,0-.44-2.22,6.64,6.64,0,0,0-1.29-2.06,6.65,6.65,0,0,0-5.08-2.14,7.33,7.33,0,0,0-2.94.6,9.07,9.07,0,0,0-2.5,1.59,9.79,9.79,0,0,0-1.87,2.28,7.49,7.49,0,0,0-1,2.66h15A3.29,3.29,0,0,0,1088.8,137.33Z" transform="translate(-48.79 -37.12)"/><path class="cls-1" d="M1110.37,131a9,9,0,0,0-3.35.63,8,8,0,0,0-2.8,1.87,8.85,8.85,0,0,0-1.92,3.13,12.51,12.51,0,0,0-.71,4.42v12.18h-3.51V128.39h3.35l.16,4.77a6.82,6.82,0,0,1,3-3.7,10.45,10.45,0,0,1,5.57-1.4l.71,3Z" transform="translate(-48.79 -37.12)"/><path class="cls-1" d="M1125,153.74h-1.26l-10.48-25.36h3.51l5.32,12.73,1.24,3.13q.63,1.59,1.13,3.18h.11q.55-1.59,1.15-3.16t1.26-3.16l5.21-12.73h3.29Z" transform="translate(-48.79 -37.12)"/><path class="cls-1" d="M1145.6,120.92a1.77,1.77,0,0,1-.25.8,4.07,4.07,0,0,1-.63.88,5.17,5.17,0,0,1-.77.69,1.06,1.06,0,0,1-1.43,0,4.26,4.26,0,0,1-.74-.69,4.62,4.62,0,0,1-.6-.88,1.41,1.41,0,0,1,0-1.59,4.69,4.69,0,0,1,.6-.88,5.37,5.37,0,0,1,.74-.71,1,1,0,0,1,1.43,0,6.82,6.82,0,0,1,.77.71,4.11,4.11,0,0,1,.63.88A1.77,1.77,0,0,1,1145.6,120.92Zm-4.12,32.33V128.39H1145v24.86Z" transform="translate(-48.79 -37.12)"/><path class="cls-1" d="M1172,132.83a11.39,11.39,0,0,0-3.21-1.43,13.82,13.82,0,0,0-3.7-.49,10.75,10.75,0,0,0-3.92.71,9.29,9.29,0,0,0-3.18,2,9.46,9.46,0,0,0-2.11,3.16,10.35,10.35,0,0,0-.77,4A9.81,9.81,0,0,0,1158,148a9.27,9.27,0,0,0,3.18,2,10.88,10.88,0,0,0,4,.71,15.72,15.72,0,0,0,3.65-.41,16.28,16.28,0,0,0,3.65-1.4l-.88,3.51a9.79,9.79,0,0,1-3,1,19.92,19.92,0,0,1-3.68.33,14.26,14.26,0,0,1-5-.91,12.68,12.68,0,0,1-7.19-6.7,12.66,12.66,0,0,1-1.1-5.35,13.14,13.14,0,0,1,1.07-5.38,12.06,12.06,0,0,1,2.91-4.09,13.46,13.46,0,0,1,4.25-2.61,14,14,0,0,1,5.1-.93,16.41,16.41,0,0,1,4.39.55,14.68,14.68,0,0,1,3.4,1.37Z" transform="translate(-48.79 -37.12)"/><path class="cls-1" d="M1198.29,137.11V138a3,3,0,0,1-.11.82l-2.09,2h-16.63a9.1,9.1,0,0,0,2.53,6.81,10.24,10.24,0,0,0,3.18,2.22,9.94,9.94,0,0,0,4.17.85,13.92,13.92,0,0,0,4.12-.58,12.6,12.6,0,0,0,3.68-1.89l-1,3.84a12.37,12.37,0,0,1-3.16,1.26,16.48,16.48,0,0,1-4,.44,13.49,13.49,0,0,1-5.08-1,13,13,0,0,1-4.17-2.66,12.46,12.46,0,0,1-2.83-4.09,13,13,0,0,1-1-5.24,13.37,13.37,0,0,1,1-5.41,13.14,13.14,0,0,1,2.74-4.09,12,12,0,0,1,3.84-2.61,11.15,11.15,0,0,1,4.39-.91,11.76,11.76,0,0,1,4.47.8,9.8,9.8,0,0,1,3.27,2.11,9.06,9.06,0,0,1,2,3A8.84,8.84,0,0,1,1198.29,137.11Zm-3.46.22a6.09,6.09,0,0,0-.44-2.22,6.64,6.64,0,0,0-1.29-2.06,6.65,6.65,0,0,0-5.08-2.14,7.33,7.33,0,0,0-2.94.6,9.07,9.07,0,0,0-2.5,1.59,9.79,9.79,0,0,0-1.87,2.28,7.49,7.49,0,0,0-1,2.66h15A3.29,3.29,0,0,0,1194.83,137.33Z" transform="translate(-48.79 -37.12)"/><path class="cls-1" d="M1218.43,146.77a6.36,6.36,0,0,1-2.28,5.08,9.27,9.27,0,0,1-6.23,1.95,13.3,13.3,0,0,1-4.09-.58,9,9,0,0,1-2.88-1.45l-.93-4a11.65,11.65,0,0,0,7.93,3.07,5.87,5.87,0,0,0,3.52-1,3.33,3.33,0,0,0,1.45-2.85,3.7,3.7,0,0,0-1.26-2.88,10.32,10.32,0,0,0-3.33-1.89,15.64,15.64,0,0,1-5.33-3,6.76,6.76,0,0,1-1.31-7.41,6.05,6.05,0,0,1,1.59-2.06,7.62,7.62,0,0,1,2.44-1.34,9.29,9.29,0,0,1,3.07-.49,11.8,11.8,0,0,1,3.69.55,9.93,9.93,0,0,1,2.38,1l-.66,2.85a11.44,11.44,0,0,0-2.19-1,9.5,9.5,0,0,0-3.28-.52,4.56,4.56,0,0,0-3,1,3.21,3.21,0,0,0-1.18,2.58,3.33,3.33,0,0,0,1.13,2.63,10.2,10.2,0,0,0,3.21,1.76,15.88,15.88,0,0,1,5.57,3.13A6.43,6.43,0,0,1,1218.43,146.77Z" transform="translate(-48.79 -37.12)"/><path class="cls-1" d="M1228.42,150.78a6.08,6.08,0,0,1-.38,1.89,18.11,18.11,0,0,1-1,2.36,18.65,18.65,0,0,1-1.48,2.42,21.26,21.26,0,0,1-1.73,2.11l-1.54-.22a15.68,15.68,0,0,0,2.06-3.21,10.16,10.16,0,0,0,1-2.88,3,3,0,0,1-1.32-1,2.33,2.33,0,0,1-.71-1.51,2,2,0,0,1,.27-.91,5,5,0,0,1,.69-1,5.69,5.69,0,0,1,.85-.8,1.06,1.06,0,0,1,1.54,0,6.64,6.64,0,0,1,.85.77,4.19,4.19,0,0,1,.69,1A2.18,2.18,0,0,1,1228.42,150.78Z" transform="translate(-48.79 -37.12)"/><path class="cls-1" d="M1248.78,153.25v-35h3.68v35Z" transform="translate(-48.79 -37.12)"/><path class="cls-1" d="M1277.75,153.25V136.88a5.69,5.69,0,0,0-1.74-4.3,7,7,0,0,0-5.06-1.67,7.49,7.49,0,0,0-5.12,1.67,5.45,5.45,0,0,0-1.91,4.3v16.37h-3.51V128.39h3.18l.11,3a8.43,8.43,0,0,1,2.9-2.5,10.69,10.69,0,0,1,5.2-1.07,11.29,11.29,0,0,1,3.75.6,9.36,9.36,0,0,1,3,1.7,7.46,7.46,0,0,1,2,2.72,9,9,0,0,1,.71,3.65v16.74Z" transform="translate(-48.79 -37.12)"/><path class="cls-1" d="M1307,132.83a11.39,11.39,0,0,0-3.21-1.43,13.82,13.82,0,0,0-3.7-.49,10.75,10.75,0,0,0-3.92.71,9.29,9.29,0,0,0-3.18,2,9.46,9.46,0,0,0-2.11,3.16,10.35,10.35,0,0,0-.77,4A9.81,9.81,0,0,0,1293,148a9.27,9.27,0,0,0,3.18,2,10.88,10.88,0,0,0,4,.71,15.72,15.72,0,0,0,3.65-.41,16.28,16.28,0,0,0,3.65-1.4l-.88,3.51a9.79,9.79,0,0,1-3,1,19.92,19.92,0,0,1-3.68.33,14.26,14.26,0,0,1-5-.91,12.68,12.68,0,0,1-7.19-6.7,12.66,12.66,0,0,1-1.1-5.35,13.14,13.14,0,0,1,1.07-5.38,12.06,12.06,0,0,1,2.91-4.09,13.46,13.46,0,0,1,4.25-2.61,14,14,0,0,1,5.1-.93,16.41,16.41,0,0,1,4.39.55,14.68,14.68,0,0,1,3.4,1.37Z" transform="translate(-48.79 -37.12)"/><path class="cls-1" d="M1317.21,150.78a2,2,0,0,1-.27.91,5.8,5.8,0,0,1-.66,1,4.35,4.35,0,0,1-.85.8,1.13,1.13,0,0,1-1.59,0,4.35,4.35,0,0,1-.85-.8,5.74,5.74,0,0,1-.66-1,1.63,1.63,0,0,1,0-1.81,5.82,5.82,0,0,1,.66-1,4.38,4.38,0,0,1,.85-.8,1.13,1.13,0,0,1,1.59,0,4.38,4.38,0,0,1,.85.8,5.88,5.88,0,0,1,.66,1A2,2,0,0,1,1317.21,150.78Z" transform="translate(-48.79 -37.12)"/><path class="cls-2" d="M613.88,193.81a6.9,6.9,0,0,1-.64,3,6.71,6.71,0,0,1-1.69,2.23,7.62,7.62,0,0,1-2.4,1.39,8.19,8.19,0,0,1-2.81.49h-7.23V177H605a7.13,7.13,0,0,1,2.4.41,6.67,6.67,0,0,1,2.06,1.16,5.39,5.39,0,0,1,1.42,1.85,5.74,5.74,0,0,1,.52,2.49,5.35,5.35,0,0,1-.71,2.68,4,4,0,0,1-1.91,1.78,6,6,0,0,1,1.93.81,7.08,7.08,0,0,1,1.63,1.42,6.61,6.61,0,0,1,1.12,1.93A6.3,6.3,0,0,1,613.88,193.81Zm-5-10.87a3.33,3.33,0,0,0-1.22-2.79,4.74,4.74,0,0,0-3-1h-3v7.49h3.11a4.5,4.5,0,0,0,2.9-1A3.35,3.35,0,0,0,608.86,182.94Zm2.47,10.87a4.58,4.58,0,0,0-1.67-3.63,5.42,5.42,0,0,0-1.8-1,6.89,6.89,0,0,0-2.15-.34h-4.08v9.89h4.23a6.4,6.4,0,0,0,2.08-.34,5.48,5.48,0,0,0,1.74-1,4.57,4.57,0,0,0,1.2-1.54A4.75,4.75,0,0,0,611.33,193.81Z" transform="translate(-48.79 -37.12)"/><path class="cls-2" d="M625.79,200.93V177h12.48v2.17h-10v8.62h8.17V190H628.3v8.77h11.28v2.17Z" transform="translate(-48.79 -37.12)"/><path class="cls-2" d="M660.19,189.88v11.05h-2.47V189.88L648.61,177h2.77l5.17,7.31,1.24,1.8q.68,1,1.24,1.84h.08l1.2-1.82q.64-1,1.27-1.82l5.21-7.31h2.58Z" transform="translate(-48.79 -37.12)"/><path class="cls-2" d="M702.08,188.94a12.1,12.1,0,0,1-7.77,11.52,13.19,13.19,0,0,1-9.48,0,12.15,12.15,0,0,1-4-2.51,12.16,12.16,0,0,1-3.78-9,12,12,0,0,1,1-5,12.33,12.33,0,0,1,2.75-3.9,12.16,12.16,0,0,1,4-2.51,13.19,13.19,0,0,1,9.48,0,12.16,12.16,0,0,1,4,2.51,12.33,12.33,0,0,1,2.75,3.9A12,12,0,0,1,702.08,188.94Zm-2.55,0a10.35,10.35,0,0,0-.82-4.18,9.67,9.67,0,0,0-2.21-3.2,10.15,10.15,0,0,0-3.19-2,9.87,9.87,0,0,0-12.89,5.25,11,11,0,0,0,0,8.37,10.05,10.05,0,0,0,2.19,3.2,9.75,9.75,0,0,0,3.17,2.06,10,10,0,0,0,12.93-5.26A10.31,10.31,0,0,0,699.53,188.94Z" transform="translate(-48.79 -37.12)"/><path class="cls-2" d="M734.11,201.45,722.32,188q-1.54-1.76-3.08-3.58t-2.78-3.32l-.07,0q.07,1.69.07,3.33v16.49H714V177h1.76l11.11,12.7q1.24,1.43,2.74,3.19t2.7,3.22l.08,0q-.07-1.61-.08-3.2V177h2.47v24.43Z" transform="translate(-48.79 -37.12)"/><path class="cls-2" d="M767.23,189a11.79,11.79,0,0,1-1,5.08,10.79,10.79,0,0,1-2.87,3.75,12.9,12.9,0,0,1-4.23,2.32,16.07,16.07,0,0,1-5.12.81h-6.26V177H754a16.07,16.07,0,0,1,5.12.81,12.9,12.9,0,0,1,4.23,2.32,10.81,10.81,0,0,1,2.87,3.75A11.8,11.8,0,0,1,767.23,189Zm-2.58,0a9.93,9.93,0,0,0-.84-4.21,8.69,8.69,0,0,0-2.32-3.05,10.16,10.16,0,0,0-3.5-1.87,14.52,14.52,0,0,0-4.38-.64h-3.37v19.56h3.37a14.52,14.52,0,0,0,4.38-.64,10.16,10.16,0,0,0,3.5-1.87,8.69,8.69,0,0,0,2.32-3.05A9.92,9.92,0,0,0,764.65,189Z" transform="translate(-48.79 -37.12)"/><path class="cls-2" d="M795.86,200.93V177h12.48v2.17h-10v8.62h8.17V190h-8.17v8.77h11.28v2.17Z" transform="translate(-48.79 -37.12)"/><path class="cls-2" d="M835.31,200.93,831,194q-.53-.79-1-1.67l-1-1.78h-.08q-.49.9-1,1.8t-1,1.65l-4.38,6.89h-2.7l7.72-12.18L820.1,177H823l4.08,6.52,1,1.61q.52.86.94,1.65h.08q.41-.79.94-1.65l1-1.61,4.16-6.52h2.7l-7.34,11.58,7.72,12.33Z" transform="translate(-48.79 -37.12)"/><path class="cls-2" d="M863.3,183.51a6.18,6.18,0,0,1-.58,2.73,6.39,6.39,0,0,1-1.54,2,6.51,6.51,0,0,1-2.19,1.27,7.69,7.69,0,0,1-2.55.43h-4.31v10.94h-2.51V177h6.67a8.16,8.16,0,0,1,2.62.43,6.67,6.67,0,0,1,2.25,1.27,6.29,6.29,0,0,1,1.55,2A6.19,6.19,0,0,1,863.3,183.51Zm-2.55,0a4.08,4.08,0,0,0-.39-1.82,4,4,0,0,0-1-1.35,4.82,4.82,0,0,0-1.54-.84,5.85,5.85,0,0,0-1.89-.3h-3.75v8.62H856a5.77,5.77,0,0,0,1.8-.28,4.22,4.22,0,0,0,1.5-.84,4.32,4.32,0,0,0,1-1.37A4.08,4.08,0,0,0,860.75,183.51Z" transform="translate(-48.79 -37.12)"/><path class="cls-2" d="M874.31,200.93V177h12.48v2.17h-10v8.62H885V190h-8.17v8.77H888.1v2.17Z" transform="translate(-48.79 -37.12)"/><path class="cls-2" d="M917.47,180.43a10.48,10.48,0,0,0-2.72-1.16,12.73,12.73,0,0,0-3.58-.49,11.14,11.14,0,0,0-3.9.69,9.82,9.82,0,0,0-5.62,5.25,11,11,0,0,0,0,8.49,9.72,9.72,0,0,0,2.29,3.2,9.9,9.9,0,0,0,3.32,2,11.25,11.25,0,0,0,3.93.69,12.6,12.6,0,0,0,6.74-1.61l-.6,2.55a9.12,9.12,0,0,1-2.64,1,18.76,18.76,0,0,1-3.77.32,13.44,13.44,0,0,1-4.68-.84,12.18,12.18,0,0,1-4-2.45,12.47,12.47,0,0,1-2.85-3.9,12.93,12.93,0,0,1,0-10.38,12.13,12.13,0,0,1,2.87-3.88,12.55,12.55,0,0,1,4.07-2.44,13.34,13.34,0,0,1,4.65-.84,16.6,16.6,0,0,1,4.08.45,11.26,11.26,0,0,1,3,1.16Z" transform="translate(-48.79 -37.12)"/><path class="cls-2" d="M937.82,179.2v21.73h-2.51V179.2H927.1V177h19v2.17Z" transform="translate(-48.79 -37.12)"/><path class="cls-2" d="M970.27,200.93l-2.74-6.71H957.41l-2.7,6.71h-2.47l9.89-24.39h.79l9.89,24.39Zm-6.44-16.12q-.34-.82-.66-1.75t-.62-1.9h-.07q-.3,1-.64,1.9t-.67,1.75l-2.88,7.32h8.39Z" transform="translate(-48.79 -37.12)"/><path class="cls-2" d="M989.71,179.2v21.73H987.2V179.2H979V177h19v2.17Z" transform="translate(-48.79 -37.12)"/><path class="cls-2" d="M1009.19,200.93V177h2.51v23.9Z" transform="translate(-48.79 -37.12)"/><path class="cls-2" d="M1049.28,188.94a12.1,12.1,0,0,1-7.77,11.52,13.19,13.19,0,0,1-9.48,0,12.15,12.15,0,0,1-4-2.51,12.16,12.16,0,0,1-3.78-9,12,12,0,0,1,1-5A12.33,12.33,0,0,1,1028,180a12.16,12.16,0,0,1,4-2.51,13.19,13.19,0,0,1,9.48,0,12.16,12.16,0,0,1,4,2.51,12.33,12.33,0,0,1,2.75,3.9A12,12,0,0,1,1049.28,188.94Zm-2.55,0a10.35,10.35,0,0,0-.82-4.18,9.67,9.67,0,0,0-2.21-3.2,10.15,10.15,0,0,0-3.19-2,9.87,9.87,0,0,0-12.89,5.25,11,11,0,0,0,0,8.37,10.05,10.05,0,0,0,2.19,3.2,9.75,9.75,0,0,0,3.17,2.06,10,10,0,0,0,12.93-5.26A10.31,10.31,0,0,0,1046.74,188.94Z" transform="translate(-48.79 -37.12)"/><path class="cls-2" d="M1081.32,201.45,1069.53,188q-1.54-1.76-3.08-3.58t-2.78-3.32l-.07,0q.07,1.69.07,3.33v16.49h-2.47V177H1063l11.11,12.7q1.24,1.43,2.74,3.19t2.7,3.22l.08,0q-.07-1.61-.08-3.2V177H1082v24.43Z" transform="translate(-48.79 -37.12)"/><path class="cls-2" d="M1108.07,194.52a6.32,6.32,0,0,1-2.08,5,8.22,8.22,0,0,1-5.68,1.85,11.3,11.3,0,0,1-3.71-.56,9.79,9.79,0,0,1-2.58-1.27l-.71-3a13.94,13.94,0,0,0,3.29,1.89,10.18,10.18,0,0,0,3.83.69,5.5,5.5,0,0,0,3.67-1.2,4,4,0,0,0,1.42-3.18,4.3,4.3,0,0,0-1.16-3.09,9.15,9.15,0,0,0-3.67-2.08,11,11,0,0,1-4.74-2.85,6,6,0,0,1-1.52-4.08,5.88,5.88,0,0,1,.42-2.19,5.76,5.76,0,0,1,1.27-1.93,6.2,6.2,0,0,1,2.2-1.39,8.65,8.65,0,0,1,3.15-.52,9.68,9.68,0,0,1,3,.43,8,8,0,0,1,2.08,1l-.52,2.1a7.41,7.41,0,0,0-2-1,8.09,8.09,0,0,0-2.64-.43,5.43,5.43,0,0,0-2,.34,4.44,4.44,0,0,0-1.42.86,3.62,3.62,0,0,0-.86,1.22,3.42,3.42,0,0,0-.3,1.37,3.64,3.64,0,0,0,1,2.55,8.76,8.76,0,0,0,3.33,2,20.79,20.79,0,0,1,2.88,1.31,9.79,9.79,0,0,1,2.15,1.59,6.19,6.19,0,0,1,1.35,2A6.67,6.67,0,0,1,1108.07,194.52Z" transform="translate(-48.79 -37.12)"/><rect class="cls-3" x="477.03" y="77.48" width="111.83" height="111.83" transform="translate(766.67 567.45) rotate(-135)"/><path class="cls-4" d="M529.83,116.41c-.76-8.91-6.42-14.85-22.41-14.85H479.24v1c2.34.58,4.18,2.28,4.18,4.49v45.78a5.39,5.39,0,0,1-4.18,4.9v1.06h21v-1.62c-1.65-.91-3.59-2.51-3.63-4.34V105h7.06c7.48,0,11.76,4.55,12,11.53a10.73,10.73,0,0,1-.58,4.09c-3.25,10.32-9.49,9.51-9.43,9.57l-.16,1.1C522.06,132.9,530.56,124.88,529.83,116.41Z" transform="translate(-48.79 -37.12)"/><path class="cls-5" d="M556.9,181.9c-3.94,3.12-9.22,3.57-16.14,3.58-13.91-.33-24.33-9.58-24.33-25.77S527.14,135.3,542,135.3a27.22,27.22,0,0,1,9.8,1.66V131A67.72,67.72,0,0,0,541,130.2c-23.73,0-38.17,11.4-38.17,29.69,0,18.68,15,29.78,37.91,29.86A41.06,41.06,0,0,0,556.5,187Z" transform="translate(-48.79 -37.12)"/><path class="cls-6" d="M584.5,132.55,568.34,124c-3.92-2.24-6.74-4.4-6.51-7.64.23-4.41,4.87-7.9,12.23-7.9.48,0,.94,0,1.4,0h0a31.76,31.76,0,0,1,11,2.63v-7.23l-3.84-.54c-4.27-.48-9.72-.84-12.73-.84-11.79,0-19.7,6.7-20.5,15.21-.68,6,2.51,11.82,8.94,15.57L574.66,142c5,2.93,5,3.5,5,6.83,0,5.15-3.13,9.11-11.26,9.24-3.16,0-5.15.33-7.58-.65v0L550.74,154l2.6,6.86a44.36,44.36,0,0,0,14.87,2.32c14.94,0,24.12-6.31,24.69-17C593.29,140,590.06,135.73,584.5,132.55Z" transform="translate(-48.79 -37.12)"/><path class="cls-1" d="M167,128c-2.47-12.44-11.75-20.6-23.12-20.6-11.85,0-21.59,8.61-23.61,20.6Zm-22.49,30.94c9.46,0,16-4,22.06-13.61l.41-.66,6.8,3.77-.43.73c-6.78,11.42-16.54,16.93-29.63,16.93-18.49,0-32.11-13.94-32.11-32.84,0-18.31,13.95-32.54,32.11-32.54,18.83,0,31.47,13.21,31.8,33.27v.83H120.26C121.19,149.56,130.73,158.93,144.51,158.93Z" transform="translate(-48.79 -37.12)"/><polygon class="cls-1" points="138.81 64.11 157.53 88.82 175.96 64.11 185.92 64.11 162.82 94.99 188.35 128.97 178.4 128.97 157.54 101.16 136.69 128.97 126.57 128.97 152.41 94.99 128.84 64.11 138.81 64.11"/><path class="cls-1" d="M277.54,159c13.58,0,24.15-10.92,24.15-25.23,0-14.77-10.58-25.83-24.46-25.83-14.66,0-24.62,10.59-24.62,26.57C252.61,148.74,263,159,277.54,159Zm-32.43-57.72h8v10.15c5.85-6.91,14.32-10.65,24-10.65,19.1,0,32.74,13.78,32.74,33s-13.33,32.39-32.43,32.39c-9.92,0-17.79-3.44-24.3-10.77V231h-8Z" transform="translate(-48.79 -37.12)"/><circle class="cls-7" cx="316.31" cy="159.6" r="6.49" transform="translate(-86.36 105.35) rotate(-24)"/><path class="cls-8" d="M49.31,83.48a7.76,7.76,0,0,1,14.52.09l-.34.14a6.85,6.85,0,0,0-3.47,9l.18.37a7.76,7.76,0,0,1-10.89-9.64Z" transform="translate(-48.79 -37.12)"/><path class="cls-8" d="M100.78,97.75a7.76,7.76,0,1,1-3.68,9.53l.37-.15a6.85,6.85,0,0,0,3.47-9Z" transform="translate(-48.79 -37.12)"/><path class="cls-8" d="M64,116.57a7.73,7.73,0,0,1,4.58-4.51l.14.34a6.85,6.85,0,0,0,9,3.47l.33-.16a7.76,7.76,0,1,1-14.1.85Z" transform="translate(-48.79 -37.12)"/><path class="cls-8" d="M82.4,68.75a7.76,7.76,0,1,1,9.94,10.06l-.15-.38a6.85,6.85,0,0,0-9-3.47l-.37.18A7.74,7.74,0,0,1,82.4,68.75Z" transform="translate(-48.79 -37.12)"/><circle class="cls-9" cx="75.03" cy="109.62" r="5.57" transform="translate(-86.89 2.87) rotate(-24)"/><circle class="cls-9" cx="85.91" cy="81.26" r="5.57" transform="translate(-74.42 4.85) rotate(-24)"/><circle class="cls-10" cx="94.65" cy="100.88" r="5.57" transform="translate(-81.64 10.11) rotate(-24)"/><circle class="cls-10" cx="66.29" cy="90" r="5.57" transform="translate(-79.65 -2.39) rotate(-23.99)"/><circle class="cls-11" cx="59.64" cy="104.71" r="6.5" transform="translate(-86.22 -3.81) rotate(-24)"/><circle class="cls-11" cx="101.3" cy="86.17" r="6.5" transform="translate(-75.08 11.53) rotate(-24)"/><circle class="cls-12" cx="89.75" cy="116.27" r="6.49" transform="translate(-88.32 9.44) rotate(-24)"/><circle class="cls-12" cx="71.19" cy="74.61" r="6.49" transform="translate(-72.98 -1.72) rotate(-23.99)"/><circle class="cls-7" cx="80.63" cy="95.53" r="6.49" transform="translate(-80.68 3.94) rotate(-24)"/><rect class="cls-13" x="337.97" width="1.5" height="200.47"/></svg>