<svg id="Layer_1" data-name="Layer 1" xmlns="http://www.w3.org/2000/svg" viewBox="0 0 32 32"><defs><style>.cls-1{opacity:0;}.cls-2{fill:#5a5b5b;}.cls-3{fill:#fff;}</style></defs><title>BasemapGallery</title><g class="cls-1"><path class="cls-2" d="M30.77,1.23V30.77H1.23V1.23H30.77M32,0H0V32H32V0Z"/></g><path class="cls-3" d="M27,4.49V25.32L20.43,28,12.74,26,12.5,26l-.24.06L5,27.74V6.79L12.39,5l8,1.94.31.08.3-.12,6-2.44M28,3,20.61,6,12.39,4,4,6V29l8.5-2,8,2L28,26V3Z"/><rect class="cls-3" x="12" y="4.5" width="1" height="22"/><rect class="cls-3" x="20" y="6.5" width="1" height="22"/></svg>