<svg id="Layer_1" data-name="Layer 1" xmlns="http://www.w3.org/2000/svg" viewBox="0 0 32 32"><defs><style>.cls-1{opacity:0;}.cls-2{fill:#5a5b5b;}</style></defs><title>Identify_Inactive</title><g class="cls-1"><path class="cls-2" d="M30.77,1.23V30.77H1.23V1.23H30.77M32,0H0V32H32V0Z"/></g><path class="cls-2" d="M16.88,23.88a8.36,8.36,0,1,1,7-7l1,.38a9.34,9.34,0,1,0-7.57,7.57Z"/><path class="cls-2" d="M17.92,26.47a11,11,0,1,1,8.55-8.55l.94.37a12,12,0,1,0-9.11,9.11Z"/><path class="cls-2" d="M15.92,21.48h-.23a5.8,5.8,0,1,1,5.8-5.8c0,.08,0,.15,0,.23l1,.39c0-.21,0-.41,0-.62a6.8,6.8,0,1,0-6.8,6.8c.21,0,.42,0,.62,0Z"/><path class="cls-2" d="M16.71,16.71l8.05,3.22L23,21.71l3.92,3.92L25.63,26.9,21.71,23l-1.78,1.78-3.22-8.05m-1.8-1.8.87,2.17L19,25.13l.56,1.41,1.07-1.07,1.08-1.08,3.22,3.22.71.71.71-.71,1.27-1.27.71-.71-.71-.71-3.22-3.22,1.08-1.08,1.07-1.07L25.13,19l-8.05-3.22-2.17-.87Z"/></svg>