<svg id="Layer_1" data-name="Layer 1" xmlns="http://www.w3.org/2000/svg" viewBox="0 0 32 32"><defs><style>.cls-1{opacity:0;}.cls-2{fill:#5a5b5b;}</style></defs><title>Legend</title><g class="cls-1"><path class="cls-2" d="M30.77,1.23V30.77H1.23V1.23H30.77M32,0H0V32H32V0Z"/></g><path class="cls-2" d="M27,5V27H5V5H27m1-1H4V28H28V4Z"/><path class="cls-2" d="M7,7.75A.75.75,0,1,1,7.75,7,.75.75,0,0,1,7,7.75Zm0-1A.25.25,0,0,0,6.75,7c0,.28.5.28.5,0A.25.25,0,0,0,7,6.75Z"/><path class="cls-2" d="M9.5,7.75A.75.75,0,1,1,10.25,7,.75.75,0,0,1,9.5,7.75Zm0-1A.25.25,0,0,0,9.25,7c0,.28.5.28.5,0A.25.25,0,0,0,9.5,6.75Z"/><path class="cls-2" d="M12,7.75A.75.75,0,1,1,12.75,7,.75.75,0,0,1,12,7.75Zm0-1a.25.25,0,0,0-.25.25c0,.28.5.28.5,0A.25.25,0,0,0,12,6.75Z"/><rect class="cls-2" x="4" y="9" width="24" height="1"/><rect class="cls-2" x="13" y="9.5" width="1" height="18"/><rect class="cls-2" x="7" y="12" width="4" height="1"/><rect class="cls-2" x="7" y="15" width="4" height="1"/><rect class="cls-2" x="7" y="18" width="4" height="1"/></svg>