<svg id="Layer_1" data-name="Layer 1" xmlns="http://www.w3.org/2000/svg" viewBox="0 0 32 32"><defs><style>.cls-1{opacity:0;}.cls-2{fill:#5a5b5b;}</style></defs><title>Bookmark_Inactive</title><g class="cls-1"><path class="cls-2" d="M30.77,1.23V30.77H1.23V1.23H30.77M32,0H0V32H32V0Z"/></g><path class="cls-2" d="M22,10V26.59l-5.29-5.29L16,20.59l-.71.71L10,26.59V10H22m1-1H9V29l7-7,7,7V9Z"/><rect class="cls-2" x="4" y="9" width="24" height="1"/><rect class="cls-2" x="4" y="3" width="24" height="1"/><rect class="cls-2" x="4" y="6" width="24" height="1"/><rect class="cls-2" x="4" y="12" width="5.5" height="1"/><rect class="cls-2" x="4" y="15" width="6" height="1"/><rect class="cls-2" x="4" y="18" width="6" height="1"/><rect class="cls-2" x="22.5" y="12" width="5.5" height="1"/><rect class="cls-2" x="22.5" y="15" width="5.5" height="1"/><rect class="cls-2" x="22.5" y="18" width="5.5" height="1"/></svg>